<svg width="271" height="96" viewBox="0 0 271 96" fill="none" xmlns="http://www.w3.org/2000/svg">
<path d="M182.74 61.66C179.52 61.66 176.86 64.03 176.86 69.23C176.86 74.48 179.53 76.85 182.74 76.85C186.68 76.85 188.11 74.1 188.11 70.71V67.8C188.11 64.41 186.68 61.66 182.74 61.66Z" fill="black"/>
<path d="M214.82 61.62C211.35 61.62 208.94 63.99 208.94 69.2C208.94 74.36 211.35 76.77 214.82 76.77C218.33 76.77 220.78 74.36 220.78 69.2C220.78 63.99 218.33 61.62 214.82 61.62Z" fill="black"/>
<path d="M159.89 27.69C156.42 27.69 154.01 30.06 154.01 35.26C154.01 40.42 156.42 42.84 159.89 42.84C163.4 42.84 165.85 40.43 165.85 35.26C165.85 30.06 163.4 27.69 159.89 27.69Z" fill="black"/>
<path d="M77.95 37.68C78.57 37.68 79.06 37.18 79.06 36.57C79.06 35.96 78.56 35.46 77.95 35.46C77.33 35.46 76.84 35.96 76.84 36.57C76.84 37.18 77.34 37.68 77.95 37.68Z" fill="black"/>
<path d="M57.6 70.12L59.21 71.96L62.1 69.43C63.92 71.33 66.1 72.87 68.54 73.94C70.98 75.01 73.66 75.62 76.48 75.64H76.63C81.99 75.64 87.02 73.57 90.83 69.79C94.67 65.98 96.78 60.9 96.78 55.49H94.33C94.33 60.24 92.47 64.7 89.1 68.05C85.76 71.37 81.34 73.19 76.63 73.19H76.5C71.59 73.15 67.14 71.1 63.95 67.81L86.48 48.07H98.86V45.62H89.28L94.18 41.33L92.57 39.49L79.78 50.69C76.48 50.6 74.09 49.85 72.85 48.5C71.86 47.44 71.93 46.34 71.93 46.29V46.31L69.49 46.06C69.47 46.28 69.32 48.23 70.98 50.08C72.32 51.58 74.41 52.53 77.22 52.93L71.91 57.58C71.78 55.23 71.05 53.47 69.71 52.35C67.23 50.27 63.76 51.3 63.61 51.34L64.33 53.68C64.35 53.67 66.69 53.01 68.14 54.22C69.24 55.14 69.68 57.05 69.42 59.76L62.38 65.93C60.22 63 58.95 59.38 58.95 55.48C58.95 55.35 58.95 55.23 58.96 55.1C59.1 48.59 64.57 43.3 71.15 43.3H71.59C72.68 43.89 73.92 44.23 75.25 44.23C78.56 44.23 81.39 42.13 82.46 39.19C82.61 39.22 82.77 39.23 82.92 39.23C84.39 39.23 85.58 38.04 85.58 36.56C85.58 35.08 84.39 33.89 82.92 33.89C82.76 33.89 82.61 33.91 82.46 33.93C81.85 32.26 80.68 30.86 79.18 29.97C78 29.3 76.66 28.9 75.22 28.9C73.79 28.9 72.45 29.29 71.3 29.98C69.8 30.88 68.62 32.28 68.02 33.94C67.87 33.91 67.71 33.9 67.56 33.9C66.09 33.9 64.9 35.09 64.9 36.57C64.9 38.05 66.09 39.24 67.56 39.24C67.72 39.24 67.87 39.22 68.02 39.2C68.26 39.85 68.58 40.46 68.98 41.02C65.96 41.46 63.15 42.83 60.91 44.99C58.14 47.67 56.57 51.24 56.49 55.07C56.49 55.21 56.49 55.36 56.49 55.5C56.49 60.02 57.99 64.2 60.53 67.57L57.6 70.12ZM70.05 35.62C70.07 35.49 70.1 35.36 70.13 35.24C70.72 32.98 73.57 32.26 75.22 33.9C75.83 33.29 76.61 33 77.38 33C78.68 33 79.94 33.81 80.31 35.22C80.35 35.35 80.37 35.48 80.4 35.61C80.46 35.92 80.49 36.23 80.49 36.55C80.49 36.87 80.46 37.19 80.4 37.5C79.93 40.07 77.6 41.99 74.85 41.8C74.52 41.77 74.21 41.72 73.9 41.64C73.28 41.48 72.7 41.2 72.18 40.84C71.08 40.06 70.29 38.86 70.04 37.49C70 37.29 69.98 37.08 69.97 36.87C69.95 36.46 69.97 36.03 70.05 35.62Z" fill="black"/>
<path d="M225.57 27.69C222.27 27.69 220.07 29.64 219.6 33.45H231.58C231.19 29.68 228.99 27.69 225.57 27.69Z" fill="black"/>
<path d="M72.5 37.68C73.12 37.68 73.61 37.18 73.61 36.57C73.61 35.96 73.11 35.46 72.5 35.46C71.88 35.46 71.38 35.96 71.38 36.57C71.38 37.18 71.88 37.68 72.5 37.68Z" fill="black"/>
<path d="M262.86 19.59C262.86 19.22 262.66 19.06 262.26 19.06H261.3V20.09H262.26C262.66 20.09 262.86 19.92 262.86 19.59Z" fill="black"/>
<path d="M261.86 16.99C259.76 16.99 258.73 18.19 258.73 20.35C258.73 22.48 259.76 23.68 261.86 23.68C263.96 23.68 264.99 22.48 264.99 20.35C264.99 18.19 263.96 16.99 261.86 16.99ZM262.83 22.32L262.26 21.12C262.13 20.85 261.93 20.79 261.53 20.79H261.3V22.32H260.37V18.22H262.27C263.17 18.22 263.8 18.65 263.8 19.49C263.8 20.16 263.33 20.55 262.67 20.66C263 20.73 263.1 20.96 263.33 21.32L263.9 22.32H262.83V22.32Z" fill="black"/>
<path d="M0 0V96H271V0H0ZM174.19 25.03H177.87V30.49C178.67 27.32 180.87 24.61 184.9 24.61C188.92 24.61 191.41 27.02 191.41 31.38V45.51H187.77V32.26C187.77 29.59 186.71 27.73 183.24 27.73C179.3 27.73 177.87 30.48 177.87 33.91V45.5H174.19V25.03ZM105.34 79.94H50V24.6H105.34V79.94ZM125.19 79.86C120.92 79.86 117.02 78 115.63 74.19L118.3 72.12C119.02 74.45 121.26 76.77 125.32 76.77C127.73 76.77 129.34 75.84 129.34 74.02C129.34 72.16 127.48 71.56 125.07 71.01L122.36 70.38C119.44 69.7 116.27 68.31 116.27 64.54C116.27 60.82 119.15 58.53 123.59 58.53C127.91 58.53 130.91 60.82 132.05 63.52L129.26 65.59C128.24 63.18 126.3 61.65 123.38 61.65C121.26 61.65 119.74 62.58 119.74 64.32C119.74 66.14 121.09 66.77 123.89 67.45L126.51 68.13C131.12 69.23 132.65 71.13 132.65 73.97C132.64 78.04 129.17 79.86 125.19 79.86ZM133.61 45.51H129.93V32.22C129.93 29.21 128.53 27.73 125.44 27.73C122.35 27.73 120.91 30.48 120.91 33.91V45.5H117.23V25.03H120.91V30.44C121.71 27.31 123.83 24.6 127.51 24.6C131.28 24.6 133.35 26.76 133.56 30.61C134.36 27.35 136.48 24.6 140.2 24.6C144.22 24.6 146.29 27.01 146.29 31.33V45.51H142.65V32.22C142.65 29.21 141.21 27.73 138.16 27.73C135.03 27.73 133.59 30.48 133.59 33.91V45.51H133.61ZM143.3 79.9C139.96 79.9 137.59 77.7 137.59 74.19V61.83H134.29V58.95H137.59V56.33L141.27 53.62V58.95H148V61.83H141.27V73.09C141.27 75.71 142.5 76.35 144.11 76.35C145.93 76.35 147.2 74.83 147.75 73.56L148.98 77.2C148.08 78.59 146.14 79.9 143.3 79.9ZM168.78 79.43H165.14V73.84C164.38 77.06 162.18 79.85 158.07 79.85C154.05 79.85 151.55 77.44 151.55 73.12V58.95H155.19V72.24C155.19 74.86 156.25 76.77 159.72 76.77C163.7 76.77 165.14 73.98 165.14 70.59V58.95H168.78V79.43V79.43ZM159.89 45.94C154.22 45.94 150.24 41.75 150.24 35.27C150.24 28.8 154.22 24.61 159.89 24.61C165.56 24.61 169.58 28.8 169.58 35.27C169.58 41.74 165.56 45.94 159.89 45.94ZM191.8 79.43H188.12V74.18C187.4 77.31 185.45 79.94 181.52 79.94C176.36 79.94 173.14 75.71 173.14 69.23C173.14 62.76 176.36 58.52 181.52 58.52C185.46 58.52 187.4 61.14 188.12 64.28V51.08H191.8V79.43ZM201.06 79.43H197.38V58.95H201.06V79.43ZM201.06 55.65H197.38V51.08H201.06V55.65ZM200.56 38.36V45.51H196.88V17.16H200.56V31.55L200.43 34.43L203.43 31.47L210.16 25.04H214.77L206.35 33L214.9 45.53H210.46L203.82 35.29L200.56 38.36ZM214.82 79.86C209.15 79.86 205.17 75.67 205.17 69.2C205.17 62.72 209.15 58.53 214.82 58.53C220.49 58.53 224.51 62.72 224.51 69.2C224.51 75.67 220.49 79.86 214.82 79.86ZM234.71 36.12H219.52C219.73 40.44 222.14 42.89 225.78 42.89C229.88 42.89 231.54 40.65 232.34 38.87L234.58 41.41C233.06 43.86 230.22 45.94 225.78 45.94C219.98 45.94 215.96 41.79 215.96 35.27C215.96 28.8 219.94 24.61 225.57 24.61C231.37 24.61 234.88 28.46 234.88 34.47C234.88 35.1 234.79 35.73 234.71 36.12ZM257.6 36.12H242.41C242.62 40.44 245.03 42.89 248.68 42.89C252.78 42.89 254.43 40.65 255.24 38.87L257.48 41.41C255.96 43.86 253.12 45.94 248.68 45.94C242.88 45.94 238.86 41.79 238.86 35.27C238.86 28.8 242.84 24.61 248.47 24.61C254.27 24.61 257.78 28.46 257.78 34.47C257.77 35.1 257.68 35.73 257.6 36.12ZM261.86 24.61C259.36 24.61 257.77 23.01 257.77 20.35C257.77 17.65 259.37 16.06 261.86 16.06C264.39 16.06 265.95 17.66 265.95 20.35C265.96 23.02 264.39 24.61 261.86 24.61Z" fill="black"/>
<path d="M248.46 27.69C245.16 27.69 242.96 29.64 242.5 33.45H254.48C254.09 29.68 251.89 27.69 248.46 27.69Z" fill="black"/>
</svg>
