<svg width="526" height="288" viewBox="0 0 526 288" fill="none" xmlns="http://www.w3.org/2000/svg">
<g clip-path="url(#clip0_223_370)">
<path d="M409.462 83.371C409.462 77.4823 412.954 74.0001 418.396 74.0001C423.911 74.0001 427.329 77.4823 427.329 83.371C427.329 89.1777 423.92 92.669 418.396 92.669C412.954 92.669 409.462 89.1777 409.462 83.371ZM425.223 83.371C425.223 78.6491 422.972 76.0329 418.396 76.0329C413.82 76.0329 411.568 78.6491 411.568 83.371C411.568 88.02 413.82 90.6362 418.396 90.6362C422.972 90.6271 425.223 88.02 425.223 83.371ZM415.132 87.6554V78.722H419.271C421.231 78.722 422.616 79.67 422.616 81.4841C422.616 82.9335 421.595 83.8086 420.146 84.0274C420.875 84.1732 421.094 84.6837 421.595 85.4767L422.826 87.6554H420.502L419.271 85.0392C418.979 84.4558 418.542 84.3099 417.676 84.3099H417.165V87.6463H415.132V87.6554ZM417.165 80.536V82.7876H419.271C420.146 82.7876 420.574 82.423 420.574 81.6937C420.574 80.8915 420.137 80.536 419.271 80.536H417.165Z" fill="black"/>
<path d="M102.856 138.257V93.5716H110.887V105.386C112.638 98.5488 117.259 92.6418 125.29 92.6418C133.503 92.6418 138.034 97.3546 138.49 105.75C140.24 98.64 144.862 92.6418 152.984 92.6418C161.753 92.6418 166.274 97.9016 166.274 107.318V138.248H158.335V109.26C158.335 102.706 155.199 99.4695 148.544 99.4695C141.708 99.4695 138.572 105.468 138.572 112.952V138.248H130.541V109.26C130.541 102.706 127.496 99.4695 120.751 99.4695C114.005 99.4695 110.869 105.468 110.869 112.952V138.248H102.856V138.257Z" fill="black"/>
<path d="M174.871 115.914C174.871 101.785 183.549 92.651 195.919 92.651C208.289 92.651 217.059 101.794 217.059 115.914C217.059 130.044 208.289 139.178 195.919 139.178C183.549 139.178 174.871 130.044 174.871 115.914ZM208.936 115.914C208.936 104.556 203.586 99.3875 195.919 99.3875C188.353 99.3875 183.084 104.556 183.084 115.914C183.084 127.181 188.344 132.441 195.919 132.441C203.586 132.441 208.936 127.181 208.936 115.914Z" fill="black"/>
<path d="M227.122 138.257V93.5716H235.153V105.486C236.903 98.5579 241.707 92.651 250.476 92.651C259.245 92.651 264.697 97.9107 264.697 107.428V138.266H256.757V109.369C256.757 103.553 254.45 99.4877 246.875 99.4877C238.288 99.4877 235.153 105.486 235.153 112.97V138.266H227.122V138.257Z" fill="black"/>
<path d="M276.611 138.257V76.3976H284.642V107.792L284.368 114.073L290.922 107.61L305.599 93.5716H315.663L297.285 110.928L315.936 138.257H306.237L291.743 115.914L284.633 122.651V138.257H276.611Z" fill="black"/>
<path d="M318.25 115.914C318.25 101.785 326.929 92.651 339.207 92.651C351.86 92.651 359.517 101.056 359.517 114.164C359.517 115.55 359.335 116.935 359.144 117.765H325.999C326.464 127.181 331.724 132.541 339.663 132.541C348.615 132.541 352.216 127.646 353.975 123.772L358.87 129.314C355.543 134.665 349.362 139.196 339.663 139.196C327.02 139.178 318.25 130.135 318.25 115.914ZM326.19 111.94H352.316C351.486 103.727 346.682 99.3875 339.207 99.3875C332.006 99.3875 327.202 103.635 326.19 111.94Z" fill="black"/>
<path d="M368.197 115.914C368.197 101.785 376.875 92.651 389.154 92.651C401.806 92.651 409.464 101.056 409.464 114.164C409.464 115.55 409.281 116.935 409.09 117.765H375.945C376.41 127.181 381.67 132.541 389.61 132.541C398.561 132.541 402.162 127.646 403.921 123.772L408.816 129.314C405.489 134.665 399.309 139.196 389.61 139.196C376.966 139.178 368.197 130.135 368.197 115.914ZM376.137 111.94H402.262C401.433 103.727 396.629 99.3875 389.154 99.3875C381.952 99.3875 377.148 103.635 376.137 111.94Z" fill="black"/>
<path d="M99.3472 200.818L105.163 196.296C106.731 201.374 111.626 206.451 120.486 206.451C125.746 206.451 129.256 204.419 129.256 200.453C129.256 196.388 125.19 195.102 119.93 193.899L114.023 192.504C107.652 191.028 100.733 187.983 100.733 179.761C100.733 171.638 107.013 166.652 116.703 166.652C126.12 166.652 132.674 171.638 135.172 177.545L129.083 182.067C126.867 176.807 122.62 173.48 116.248 173.48C111.626 173.48 108.308 175.513 108.308 179.296C108.308 183.27 111.261 184.647 117.36 186.132L123.084 187.609C133.148 190.007 136.475 194.163 136.475 200.353C136.475 209.213 128.909 213.188 120.231 213.188C110.888 213.188 102.392 209.131 99.3472 200.818Z" fill="black"/>
<path d="M147.268 200.818V173.854H140.067V167.573H147.268V161.848L155.299 155.941V167.573H169.976V173.854H155.299V198.411C155.299 204.136 157.979 205.522 161.489 205.522C165.463 205.522 168.225 202.194 169.429 199.432L172.109 207.372C170.167 210.417 165.919 213.279 159.739 213.279C152.437 213.279 147.268 208.484 147.268 200.818Z" fill="black"/>
<path d="M177.733 198.512V167.582H185.673V196.57C185.673 202.295 187.979 206.451 195.554 206.451C204.232 206.451 207.368 200.353 207.368 192.969V167.582H215.308V212.267H207.368V200.079C205.709 207.099 200.905 213.188 191.953 213.188C183.175 213.188 177.733 207.928 177.733 198.512Z" fill="black"/>
<path d="M224.815 190.016C224.815 175.886 231.835 166.652 243.092 166.652C251.679 166.652 255.927 172.377 257.495 179.204V150.399H265.526V212.258H257.495V200.809C255.927 207.645 251.679 213.361 243.092 213.361C231.835 213.37 224.815 204.145 224.815 190.016ZM245.772 206.634C254.359 206.634 257.495 200.635 257.495 193.243V186.871C257.495 179.487 254.359 173.48 245.772 173.48C238.753 173.48 232.938 178.648 232.938 190.007C232.938 201.465 238.762 206.634 245.772 206.634Z" fill="black"/>
<path d="M277.714 160.381V150.408H285.745V160.381H277.714ZM277.714 212.267V167.582H285.745V212.267H277.714Z" fill="black"/>
<path d="M294.706 189.925C294.706 175.795 303.384 166.661 315.754 166.661C328.124 166.661 336.893 175.804 336.893 189.925C336.893 204.054 328.124 213.188 315.754 213.188C303.384 213.188 294.706 204.045 294.706 189.925ZM328.771 189.925C328.771 178.566 323.42 173.398 315.754 173.398C308.188 173.398 302.919 178.566 302.919 189.925C302.919 201.192 308.179 206.451 315.754 206.451C323.42 206.451 328.771 201.183 328.771 189.925Z" fill="black"/>
<path d="M356.483 212.232C358.743 212.232 360.457 211.174 361.223 209.898L360.384 207.564C359.801 208.804 358.525 209.935 356.957 209.935C355.425 209.935 354.113 209.242 354.113 206.726V196.188H359.983V194.328H354.113V190.026L351.742 191.813V194.328H348.898V196.188H351.742V207.382C351.742 210.554 353.821 212.232 356.483 212.232ZM370.443 212.195C374.162 212.195 376.496 210.409 377.736 208.257L376.277 206.544C375.511 208.257 373.98 210.19 370.443 210.19C366.979 210.19 364.609 208.002 364.463 203.626H377.809C377.845 203.335 377.918 202.897 377.918 202.46C377.918 197.173 374.928 193.964 370.151 193.964C365.411 193.964 362.166 197.391 362.166 203.08C362.166 208.877 365.557 212.195 370.443 212.195ZM370.151 195.933C373.36 195.933 375.511 197.938 375.73 201.876H364.5C364.828 197.938 366.943 195.933 370.151 195.933ZM385.734 212.195C389.235 212.195 391.495 209.497 392.079 206.981V208.841C392.079 211.065 393.246 211.831 394.996 211.831H396.637V209.679H395.616C394.777 209.679 394.376 209.351 394.376 208.44V200.235C394.376 196.334 392.261 193.964 388.177 193.964C384.458 193.964 381.906 196.042 380.812 197.865L382.489 199.543C383.401 197.61 385.297 196.115 387.922 196.115C390.766 196.115 392.006 197.647 392.006 200.272V200.418L385.37 203.444C382.927 204.538 381.213 205.997 381.213 208.294C381.213 210.627 382.854 212.195 385.734 212.195ZM383.62 207.966C383.62 206.653 384.495 205.778 386.391 204.903L392.079 202.204V205.304C392.079 207.674 389.672 210.19 386.427 210.19C384.713 210.19 383.62 209.424 383.62 207.966ZM402.909 211.831V201.694C402.909 198.668 404.404 195.969 407.504 195.969C410.238 195.969 411.587 197.464 411.587 200.527V211.831H413.957V201.694C413.957 198.668 415.452 195.969 418.588 195.969C421.286 195.969 422.636 197.464 422.636 200.527V211.831H425.042V199.98C425.042 195.969 423.146 193.964 419.791 193.964C416.51 193.964 414.504 196.407 413.921 199.287C413.739 195.751 411.879 193.964 408.707 193.964C405.462 193.964 403.529 196.334 402.909 199.214V194.328H400.503V211.831H402.909Z" fill="black"/>
</g>
<defs>
<clipPath id="clip0_223_370">
<rect width="327.983" height="139.37" fill="white" transform="translate(99.3472 74)"/>
</clipPath>
</defs>
</svg>
