<svg width="85" height="85" viewBox="0 0 85 85" fill="none" xmlns="http://www.w3.org/2000/svg">
<path d="M72.5648 72.5647C89.1451 55.9844 89.1451 29.008 72.5648 12.4277C55.9845 -4.15261 29.0081 -4.15261 12.4278 12.4277C4.13763 20.7178 -0.00744004 31.6051 -0.00744052 42.4925C-0.00744099 53.3798 4.13763 64.2671 12.4278 72.5572C29.0081 89.145 55.9845 89.145 72.5648 72.5647ZM15.0622 69.9377C-0.0669809 54.8086 -0.0669798 30.1912 15.0622 15.0621C30.1913 -0.0670744 54.8087 -0.0670733 69.9378 15.0621C77.4987 22.6304 81.2791 32.5651 81.2791 42.4999C81.2791 51.8542 77.9229 61.2085 71.2178 68.5833L34.7829 32.1484L50.3883 32.7214L50.5222 29.0005L28.1895 28.1894L29.0006 50.5221L32.7215 50.3882L32.1485 34.7902L68.5834 71.2177C53.3799 85.052 29.7522 84.6204 15.0622 69.9377Z" fill="black"/>
</svg>
